<svg width="411" height="411" viewBox="0 0 411 411" fill="none" xmlns="http://www.w3.org/2000/svg">
<g clip-path="url(#clip0_3141_7416)">
<path d="M82.2002 1.5H328.8C373.369 1.5 409.5 37.6308 409.5 82.2002V328.8C409.5 373.369 373.369 409.5 328.8 409.5H82.2002C37.6308 409.5 1.5 373.369 1.5 328.8V82.2002C1.5 37.6308 37.6308 1.5 82.2002 1.5Z" fill="url(#paint0_linear_3141_7416)" stroke="url(#paint1_linear_3141_7416)" stroke-width="3"/>
<path d="M156 258C156 256.343 157.343 255 159 255H207V306H159C157.343 306 156 304.657 156 303V258Z" fill="white"/>
<path d="M207 255H255C256.657 255 258 256.343 258 258V303C258 304.657 256.657 306 255 306H207V255Z" fill="white"/>
<rect x="117" y="204" width="63" height="54" rx="3" fill="white"/>
<rect x="99" y="156" width="63" height="51" rx="3" fill="white"/>
<rect x="234" y="204" width="63" height="54" rx="3" fill="white"/>
<rect x="252" y="147" width="63" height="60" rx="3" fill="white"/>
<rect x="252" y="108" width="63" height="51" rx="3" fill="white"/>
<rect x="99" y="108" width="63" height="51" rx="3" fill="white"/>
</g>
<defs>
<linearGradient id="paint0_linear_3141_7416" x1="205.5" y1="0" x2="205.5" y2="411" gradientUnits="userSpaceOnUse">
<stop stop-color="#202020"/>
<stop offset="1" stop-color="#151515"/>
</linearGradient>
<linearGradient id="paint1_linear_3141_7416" x1="214.5" y1="-144" x2="221.94" y2="471.623" gradientUnits="userSpaceOnUse">
<stop stop-color="#2F2F2F"/>
<stop offset="0.588362" stop-color="#181818"/>
</linearGradient>
<clipPath id="clip0_3141_7416">
<rect width="411" height="411" fill="white"/>
</clipPath>
</defs>
</svg>
