<svg width="140" height="48" viewBox="0 0 140 48" fill="none" xmlns="http://www.w3.org/2000/svg">
<path d="M18.2223 0L0 36.0773H36.4445L18.2223 0ZM18.2223 9.14667L29.8045 32.088H6.61863L18.1996 9.14667H18.2223Z" fill="white"/>
<path d="M18.1784 17.9609L12.2218 29.7516H15.708L18.1784 24.8809L20.6489 29.7516H24.1351L18.1784 17.9609ZM27.995 38.9863H8.60352L15.1114 47.9996L18.3106 43.5916L21.4871 47.9996L27.995 38.9863ZM42.0037 28.3849L43.967 33.2996C44.4528 34.5116 44.8719 35.6356 45.1802 36.5609C45.4017 36.0329 45.8422 34.9089 46.2172 34.0276L47.0114 32.1983L48.6877 28.4729H48.8212C50.0557 31.2276 51.5786 34.5116 52.306 36.5609C52.8359 35.2836 54.6443 30.5889 55.5052 28.3849H58.9687L52.4822 43.0409H52.35L49.5259 36.5836C49.2616 36.0103 48.9973 35.4156 48.7758 34.8649C48.5556 35.4383 48.2913 36.0329 48.0484 36.5836L45.2029 43.0409H45.0707L38.6069 28.3849H42.0477H42.0037ZM61.307 42.8209V28.3849H64.3954V42.8209H61.307ZM74.256 30.9636H67.8816V28.3849H78.9327L71.9403 40.2423H78.7125V42.8209H67.241L74.2346 30.9636H74.256ZM87.2063 28.1423H87.3158L94.3535 42.7983H91.1329L89.9637 40.2423H84.5583L83.4332 42.7983H80.2126L87.2277 28.1423H87.2063ZM89.0375 38.1049C88.3755 36.6063 87.7362 35.0849 87.2944 33.8063C86.8753 34.8209 86.1025 36.7383 85.5073 38.1049H89.0375ZM101.7 28.3849C105.054 28.3849 107.281 30.0596 107.281 33.1463C107.281 36.2316 106.091 36.6276 104.524 37.2663L107.547 42.8423H104.281L101.722 37.7956H99.6268V42.8423H96.6037V28.4076H101.7V28.3849ZM99.6481 30.9636V35.2836H101.854C103.222 35.2836 104.171 34.5996 104.171 33.1463C104.171 31.6916 103.178 30.9863 101.788 30.9863H99.6481V30.9636ZM110.524 42.8209V28.3849H115.134C120.054 28.3849 123.165 31.3823 123.165 35.6143C123.165 39.8449 120.077 42.8423 115.18 42.8423H110.524V42.8209ZM113.613 30.9636V40.2196H115.134C118.224 40.2196 120.054 38.2143 120.054 35.5916C120.054 32.9689 118.224 30.9636 115.09 30.9636H113.613ZM125.547 42.2689V39.2943C126.54 39.8236 127.886 40.2636 129.187 40.3303C129.65 40.3303 130.092 40.3303 130.467 40.2423C131.571 40.0876 132.21 39.6689 132.21 38.9636C132.21 38.2583 131.349 37.5089 129.365 36.7823C126.827 35.8569 125.349 34.7983 125.349 32.2863C125.349 29.7743 127.489 28.0769 130.599 28.0769C133.71 28.0769 133.467 28.4076 134.372 28.8036V31.6476C133.534 31.1396 132.166 30.7649 130.842 30.7649C129.518 30.7649 128.393 31.3383 128.393 32.2636C128.393 33.1903 129.166 33.6969 131.15 34.4236C133.688 35.4156 135.254 36.4729 135.254 38.8983C135.254 41.3223 133.291 43.0636 129.872 43.0636C126.452 43.0636 126.628 42.7103 125.57 42.2476L125.547 42.2689Z" fill="white"/>
<path d="M40.2607 21.1786V6.58925H49.6595V9.21192H43.3932V12.5399H48.7105V15.0519H43.3932V18.5786H49.9678V21.2013H40.2607V21.1786ZM63.2478 10.1813C62.3656 9.74125 60.9975 9.16792 59.2117 9.16792C56.2554 9.16792 54.3802 11.3053 54.3802 13.8839C54.3802 16.4626 56.2327 18.5999 59.101 18.5999C61.9692 18.5999 62.4323 18.0493 63.3372 17.5866V20.4732C62.5871 20.8706 60.9321 21.4439 58.8807 21.4439C54.4897 21.4439 51.2478 18.1373 51.2478 13.8626C51.2478 9.58658 54.4683 6.28125 58.9688 6.28125C63.4693 6.28125 62.4763 6.89858 63.2264 7.29458V10.1599H63.2478V10.1813ZM72.2488 6.30258C76.6385 6.30258 79.8818 9.67458 79.8818 13.8839C79.8818 18.0933 76.6612 21.4653 72.2488 21.4653C67.8364 21.4653 64.6158 18.1373 64.6158 13.8839C64.6158 9.63058 67.8364 6.30258 72.2488 6.30258ZM72.2488 18.5999C74.8741 18.5999 76.7493 16.4853 76.7493 13.8839C76.7493 11.2839 74.8741 9.16792 72.2488 9.16792C69.6235 9.16792 67.7483 11.3053 67.7483 13.8839C67.7483 16.4626 69.6235 18.5999 72.2488 18.5999ZM85.8825 13.6413L85.111 12.9813V21.1786H82.132V6.36925H82.1988L89.1471 13.3773L96.0967 6.36925H96.1634V21.1786H93.1845V12.9813L92.413 13.6413C91.3319 14.8093 90.2508 15.9999 89.1471 17.1466C88.0446 15.9999 86.9862 14.8093 85.8825 13.6413Z" fill="white"/>
</svg>
