<svg width="92" height="22" viewBox="0 0 92 22" fill="none" xmlns="http://www.w3.org/2000/svg">
<path d="M6.79228 13.278C6.73439 13.3818 6.77627 13.4501 6.81691 13.5466C7.14821 14.3338 8.15566 15.5679 8.76161 16.2038C9.80847 17.3011 11.0906 18.219 12.5352 18.7036C11.7495 21.5695 9.12863 21.7831 6.81937 20.482C5.00646 19.4603 3.46203 17.6477 2.45581 15.8559L5.67522 14.0641C5.69246 14.0543 5.78483 13.9188 5.77375 13.8712C4.45347 11.5912 2.52478 9.53449 0 8.61172C0.809162 5.76775 3.46942 5.58954 5.74419 6.88947C7.5842 7.9404 8.99315 9.65899 10.072 11.452L6.79105 13.2793L6.79228 13.278Z" fill="url(#paint0_linear_6480_1882)"/>
<path d="M11.8493 5.15367C11.7877 5.05114 11.7077 5.05358 11.603 5.04016C10.7495 4.93152 9.16688 5.1793 8.30846 5.3807C6.82561 5.73101 5.38341 6.37182 4.23678 7.36904C2.12582 5.2623 3.24781 2.90535 5.54105 1.57368C7.34042 0.527638 9.69647 0.108976 11.7656 0.141932L11.7225 3.80126C11.7225 3.82079 11.7939 3.96726 11.8419 3.98313C14.4948 3.99045 17.2573 3.36307 19.3239 1.6579C21.4053 3.77441 20.2304 6.14601 17.9568 7.4496C16.118 8.50297 13.9122 8.85328 11.8062 8.88379L11.8505 5.15367H11.8493Z" fill="url(#paint1_linear_6480_1882)"/>
<path d="M16.4205 13.5554C16.5412 13.553 16.5782 13.4834 16.6422 13.4004C17.1644 12.7217 17.7396 11.2399 17.9908 10.4026C18.4268 8.955 18.5869 7.39631 18.2889 5.91451C21.1856 5.15653 22.6832 7.29744 22.7005 9.93147C22.714 11.9992 21.9024 14.2304 20.8395 15.9893L17.6645 14.123C17.6472 14.1132 17.4834 14.101 17.4465 14.134C16.1139 16.4067 15.2813 19.092 15.737 21.7187C12.8464 22.4462 11.3611 20.2528 11.3599 17.6493C11.3587 15.5437 12.1555 13.4761 13.1827 11.6525L16.4193 13.5554H16.4205Z" fill="url(#paint2_linear_6480_1882)"/>
<path d="M34.331 17.3431C29.8157 17.3431 27.605 14.7353 27.605 10.5916V10.2652C27.605 8.82139 27.8848 7.63466 28.4434 6.56364C29.5606 4.46807 31.6092 3.28134 34.4249 3.28134C36.7296 3.28134 38.3579 4.07249 39.4287 5.35317C40.4994 6.63385 40.9651 8.28637 40.9651 10.0091V11.4292H30.6313C30.8874 13.6178 32.237 14.8282 34.4487 14.8282C36.078 14.8282 37.0321 14.1993 37.4978 13.0353H40.7792C40.011 15.7588 37.8468 17.3421 34.332 17.3421L34.331 17.3431ZM30.6531 9.03203H37.915C37.7054 6.98295 36.5882 5.70326 34.4467 5.70326C32.3052 5.70326 31.0021 6.91372 30.6531 9.03203Z" fill="white"/>
<path d="M44.596 16.994H40.8954L46.2254 9.98633L41.454 3.60766H45.038L47.9704 7.86802L50.9958 3.60766H54.5333L49.6917 9.96359L54.8586 16.994H51.2746L47.9467 12.1976L44.595 16.994H44.596Z" fill="white"/>
<path d="M62.623 16.994C61.3664 16.994 60.3886 16.8081 59.737 16.5054C58.3875 15.83 57.9683 14.3634 57.9683 11.6398V6.30846H55.3611V3.72436H56.5485C56.9905 3.72436 57.293 3.67788 57.5026 3.58491C57.9445 3.37526 58.0849 2.86299 58.1541 1.76922C58.1779 1.18673 58.2006 0.395577 58.2006 0H60.8078V3.60865H64.3453V6.30945H60.8078V11.1286C60.8078 12.0137 60.878 12.6654 60.9936 13.1074C61.2033 13.9925 61.9013 14.1547 63.3912 14.1547H64.3453V16.995H62.623V16.994Z" fill="white"/>
<path d="M65.416 12.5704H68.7212C69.001 14.1537 70.0945 14.7817 72.0026 14.7817C73.9108 14.7817 74.7255 14.1299 74.7255 13.0589C74.7255 12.6633 74.5623 12.337 74.2133 12.1273C73.538 11.7318 72.3744 11.5686 71.094 11.3827C69.8839 11.1967 68.65 10.9871 67.6494 10.4511C66.6489 9.91507 66.0201 9.00722 66.0201 7.51788C66.0201 5.05047 67.859 3.28026 71.536 3.28026C75.2129 3.28026 77.122 4.93278 77.4948 7.61084H74.3765C74.1669 6.30741 73.283 5.72493 71.5132 5.72493C69.6051 5.72493 69.0227 6.40037 69.0227 7.33097C69.0227 7.72654 69.1858 8.05289 69.5349 8.26255C70.2101 8.65813 71.3965 8.8213 72.6769 9.00722C73.8871 9.19314 75.1209 9.4028 76.1215 9.93881C77.122 10.4748 77.7508 11.3827 77.7508 12.872C77.7508 15.4561 75.8891 17.342 71.9324 17.342C67.9757 17.342 65.8115 15.6895 65.415 12.5694L65.416 12.5704Z" fill="white"/>
<path d="M78.377 19.3457H79.9362C80.5185 19.3457 81.0069 19.2755 81.3559 19.1825C82.0777 18.9728 82.4731 18.4378 83.008 17.2738L83.2641 16.6449L77.7245 3.60766H80.9832L84.6136 12.6644L84.7303 13.2696L84.8934 12.6871L88.431 3.60766H91.6432L85.7783 17.7624C85.0101 19.6246 84.405 20.6956 83.6141 21.2781C82.7994 21.8606 81.7287 22 79.9134 22H78.377V19.3457Z" fill="white"/>
<defs>
<linearGradient id="paint0_linear_6480_1882" x1="4.47631" y1="2.97053" x2="20.6934" y2="22.0039" gradientUnits="userSpaceOnUse">
<stop offset="0.00480769" stop-color="#4922E5"/>
<stop offset="0.697115" stop-color="#A556FB"/>
<stop offset="1" stop-color="white"/>
</linearGradient>
<linearGradient id="paint1_linear_6480_1882" x1="4.47631" y1="2.97053" x2="20.6934" y2="22.0039" gradientUnits="userSpaceOnUse">
<stop offset="0.00480769" stop-color="#4922E5"/>
<stop offset="0.697115" stop-color="#A556FB"/>
<stop offset="1" stop-color="white"/>
</linearGradient>
<linearGradient id="paint2_linear_6480_1882" x1="4.47631" y1="2.97053" x2="20.6934" y2="22.0039" gradientUnits="userSpaceOnUse">
<stop offset="0.00480769" stop-color="#4922E5"/>
<stop offset="0.697115" stop-color="#A556FB"/>
<stop offset="1" stop-color="white"/>
</linearGradient>
</defs>
</svg>
