<svg width="260" height="86" viewBox="0 0 260 86" fill="none" xmlns="http://www.w3.org/2000/svg">
<g clip-path="url(#clip0_10843_105)">
<path fill-rule="evenodd" clip-rule="evenodd" d="M214.641 -58.773C214.637 -58.6219 214.577 -58.4777 214.472 -58.369L169.776 -19.235C169.677 -19.1477 169.552 -19.0941 169.421 -19.0821C169.289 -19.07 169.157 -19.1001 169.044 -19.168L133.846 -48.234L133.856 -48.236L85.961 -88.038C85.667 -74.528 92.8 -63.228 103.058 -54.435L118.147 -41.912L90.579 -19.281C90.349 -19.141 90.049 -19.169 89.809 -19.382L45.304 -58.576C45.2417 -58.6318 45.1912 -58.6994 45.1555 -58.775C45.1197 -58.8505 45.0995 -58.9325 45.096 -59.016L45.11 -89.215L45.179 -116.802C45.182 -116.953 45.2424 -117.097 45.348 -117.205L90.043 -156.34C90.142 -156.428 90.2665 -156.481 90.3981 -156.493C90.5298 -156.505 90.6619 -156.475 90.775 -156.406L135.723 -119.289L173.91 -87.554C174.205 -101.064 167.072 -112.364 156.813 -121.158L141.715 -133.69L141.698 -133.683L169.24 -156.295C169.47 -156.433 169.77 -156.405 170.01 -156.192L214.517 -116.998C214.642 -116.885 214.717 -116.727 214.723 -116.559L214.714 -89.644L214.641 -58.774V-58.773ZM229.575 -89.266L229.593 -98.441L229.585 -116.614L229.584 -116.691C229.559 -118.853 229.083 -120.985 228.186 -122.953C227.29 -124.92 225.993 -126.679 224.378 -128.116L179.87 -167.311C174.369 -172.226 166.104 -172.561 160.22 -168.111L129.985 -143.296L100.058 -168.013L99.826 -168.198C93.954 -172.665 85.691 -172.351 80.214 -167.488L35.518 -128.352C33.9091 -126.921 32.6158 -125.17 31.7206 -123.212C30.8253 -121.254 30.3476 -119.13 30.318 -116.977L30.271 -98.52H30.253L30.248 -89.475L30.23 -80.575L30.234 -58.961L30.235 -58.883C30.2604 -56.7215 30.7366 -54.589 31.633 -52.6219C32.5294 -50.6548 33.8264 -48.8964 35.441 -47.459L79.948 -8.26402C85.448 -3.35102 93.713 -3.01602 99.596 -7.46402L129.83 -32.277L159.76 -7.56201L159.991 -7.37802C162.682 -5.33212 165.969 -4.22426 169.349 -4.22401C173.036 -4.21901 176.709 -5.51801 179.604 -8.08801L224.301 -47.223C225.909 -48.6547 227.202 -50.4055 228.097 -52.364C228.993 -54.3225 229.47 -56.4459 229.5 -58.599L229.552 -80.291H229.57L229.575 -89.266ZM135.438 51.83V37.18C139.15 36.826 141.948 39.602 142.106 43.707C142.305 48.865 139.845 51.945 135.438 51.83ZM112.174 42.294C110.807 44.569 108.464 44.639 105.956 44.81V37.083C108.112 37.021 110.318 36.544 111.942 38.507C112.894 39.659 112.92 41.054 112.174 42.294ZM77.883 51.29C74.208 51.27 71.593 48.443 71.59 44.487C71.586 40.522 74.187 37.697 77.86 37.674C81.556 37.652 84.198 40.419 84.26 44.377C84.324 48.372 81.613 51.309 77.883 51.29ZM229.238 47.734C228.287 44.017 225.558 42.184 222.234 40.971C220.367 40.29 218.414 39.812 216.612 38.999C216.007 38.728 215.403 37.684 215.439 37.026C215.499 36.354 215.909 35.708 216.849 35.649C217.203 35.627 218.081 35.777 218.451 35.913C220.054 36.503 221.653 37.136 223.437 37.831L227.478 30.941C223.89 28.494 220.398 27.323 215.194 27.771C212.292 28.021 209.751 29.106 207.734 31.273C206.408 32.698 205.544 34.775 205.334 36.98C205.328 34.404 205.315 31.83 205.326 29.255C205.326 28.975 205.482 28.697 205.415 28.395H194.234V30.37C194.234 35.945 194.261 41.52 194.209 47.095C194.199 48.249 194.033 49.445 193.683 50.539C193.226 51.965 192.1 52.635 190.559 52.612C189.095 52.592 188.008 51.945 187.592 50.585C187.255 49.488 187.129 48.291 187.119 47.135C187.086 42.955 187.089 38.775 187.093 34.594C187.133 32.444 187.209 30.306 187.209 28.194C180.106 28.194 160.004 28.333 152.949 28.333V40.753C151.799 35.63 148.145 31.472 142.749 29.566C136.726 27.435 130.492 28.595 124.263 28.281V59.244C121.989 55.391 120.03 51.975 117.867 48.329C122.594 44.713 124.145 40.902 122.701 36.002C121.277 31.175 117.606 28.832 112.855 28.572C106.945 28.246 101.008 28.417 95.083 28.383C94.995 28.383 94.907 28.517 94.789 28.614V40.171C92.901 32.783 86.204 27.586 77.864 27.634C69.3 27.683 62.546 33.126 60.867 40.816V28.404H50.105V43.4C49.952 43.458 49.798 43.514 49.643 43.571C49.3 43.051 48.951 42.535 48.614 42.011C45.921 37.815 43.241 33.61 40.521 29.431C40.231 28.983 39.727 28.371 39.306 28.359C36.283 28.267 33.254 28.309 30.231 28.309C30.231 39.223 30.359 49.906 30.359 60.564H41.15V47.49C44.099 51.435 46.654 55.43 49.241 59.406C49.541 59.866 50.001 60.552 50.404 60.564C53.899 60.654 57.398 60.615 60.866 60.615V48.25C62.552 55.804 69.383 61.292 77.876 61.317C86.228 61.34 92.904 56.162 94.788 48.787V60.313H106.002V47.368C108.349 51.344 110.157 55.046 112.265 59.034C112.518 59.511 112.955 60.244 113.321 60.254C117.091 60.344 120.863 60.31 124.893 60.31C124.887 60.3014 124.882 60.2924 124.878 60.283C129.836 60.313 134.698 60.68 139.47 60.181C146.473 59.447 151.542 54.511 152.948 47.937V60.434H175.111L172.473 51.806H164.095V48.276H172.183V40.481H164.094V36.906H175.922C175.892 40.946 175.882 44.988 176.008 49.023C176.191 54.863 179.461 58.92 184.757 60.485C188.193 61.501 191.699 61.604 195.195 60.817C201.411 59.417 204.903 55.541 205.165 49.142C205.303 45.785 205.333 42.422 205.335 39.061C205.641 42.188 207.348 45.243 210.999 46.781C213.045 47.643 215.223 48.209 217.219 49.162C217.864 49.469 218.552 50.273 218.447 51.299C218.403 51.843 217.735 52.367 217.024 52.739C216.667 52.926 215.656 52.861 215.236 52.712C213.226 52.002 211.241 51.229 209.026 50.395C207.526 52.378 205.809 54.643 204.102 56.897C208.893 61.272 218.105 62.608 223.724 59.831C228.304 57.567 230.504 52.681 229.237 47.733" fill="white"/>
</g>
<defs>
<clipPath id="clip0_10843_105">
<rect width="260" height="86" fill="white"/>
</clipPath>
</defs>
</svg>
