<svg xmlns="http://www.w3.org/2000/svg" viewBox="0 0 260 362">
                    <g fill="none" fill-rule="evenodd">
                        <path d="M0 0v361.771h259.822V.001z"></path>
                        <path d="M214.641 177.227a.603.603 0 0 1-.169.404l-44.696 39.134a.623.623 0 0 1-.732.067l-35.198-29.066.01-.002-47.895-39.802c-.294 13.51 6.839 24.81 17.097 33.603l15.089 12.523-27.568 22.631c-.23.14-.53.112-.77-.101l-44.505-39.194a.626.626 0 0 1-.208-.44l.014-30.199.069-27.587a.593.593 0 0 1 .169-.403L90.043 79.66a.62.62 0 0 1 .732-.066l44.948 37.117 38.187 31.735c.295-13.51-6.838-24.81-17.097-33.604l-15.098-12.532-.017.007 27.542-22.612c.23-.138.53-.11.77.103l44.507 39.194c.125.113.2.271.206.439l-.009 26.915-.073 30.87zm14.934-30.493l.018-9.175-.008-18.173-.001-.077a15.54 15.54 0 0 0-5.206-11.425L179.87 68.689c-5.501-4.915-13.766-5.25-19.65-.8l-30.235 24.815-29.927-24.717-.232-.185c-5.872-4.467-14.135-4.153-19.612.71l-44.696 39.136a15.51 15.51 0 0 0-5.2 11.375l-.047 18.457h-.018l-.005 9.045-.018 8.9.004 21.614.001.078a15.54 15.54 0 0 0 5.206 11.424l44.507 39.195c5.5 4.913 13.765 5.248 19.648.8l30.234-24.813 29.93 24.715.231.184a15.463 15.463 0 0 0 9.358 3.154c3.687.005 7.36-1.294 10.255-3.864l44.697-39.135a15.517 15.517 0 0 0 5.199-11.376l.052-21.692h.018l.004-8.975zM135.438 287.83v-14.65c3.712-.354 6.51 2.422 6.668 6.527.199 5.158-2.261 8.237-6.668 8.122m-23.264-9.535c-1.367 2.275-3.71 2.345-6.218 2.516v-7.727c2.156-.062 4.362-.539 5.986 1.424.952 1.152.978 2.547.232 3.787m-34.291 8.996c-3.675-.02-6.29-2.847-6.293-6.803-.004-3.965 2.597-6.79 6.27-6.813 3.696-.022 6.338 2.745 6.4 6.703.064 3.995-2.647 6.932-6.377 6.913m151.355-3.556c-.951-3.717-3.68-5.55-7.004-6.763-1.867-.681-3.82-1.159-5.622-1.972-.605-.271-1.209-1.315-1.173-1.973.06-.672.47-1.318 1.41-1.377.354-.022 1.232.128 1.602.264 1.603.59 3.202 1.223 4.986 1.918l4.041-6.89c-3.588-2.447-7.08-3.618-12.284-3.17-2.902.25-5.443 1.335-7.46 3.502-1.326 1.425-2.19 3.502-2.4 5.707-.006-2.576-.019-5.15-.008-7.725 0-.28.156-.558.089-.86h-11.181v1.975c0 5.575.027 11.15-.025 16.725-.01 1.154-.176 2.35-.526 3.444-.457 1.426-1.583 2.096-3.124 2.073-1.464-.02-2.551-.667-2.967-2.027-.337-1.097-.463-2.294-.473-3.45-.033-4.18-.03-8.36-.026-12.541.04-2.15.116-4.288.116-6.4-7.103 0-27.205.139-34.26.139v12.42c-1.15-5.123-4.804-9.281-10.2-11.187-6.023-2.131-12.257-.971-18.486-1.285v30.963c-2.274-3.853-4.233-7.269-6.396-10.915 4.727-3.616 6.278-7.427 4.834-12.327-1.424-4.827-5.095-7.17-9.846-7.43-5.91-.326-11.847-.155-17.772-.189-.088 0-.176.134-.294.231v11.557c-1.888-7.388-8.585-12.585-16.925-12.537-8.564.049-15.318 5.492-16.997 13.182v-12.412H50.105V279.4c-.153.058-.307.114-.462.171-.343-.52-.692-1.036-1.029-1.56-2.693-4.196-5.373-8.401-8.093-12.58-.29-.448-.794-1.06-1.215-1.072-3.023-.092-6.052-.05-9.075-.05 0 10.914.128 21.597.128 32.255H41.15V283.49c2.949 3.945 5.504 7.94 8.091 11.916.3.46.76 1.146 1.163 1.158 3.495.09 6.994.051 10.462.051V284.25c1.686 7.554 8.517 13.042 17.01 13.067 8.352.023 15.028-5.155 16.912-12.53v11.526h11.214v-12.945c2.347 3.976 4.155 7.678 6.263 11.666.253.477.69 1.21 1.056 1.22 3.77.09 7.542.056 11.572.056a.176.176 0 0 1-.015-.027c4.958.03 9.82.397 14.592-.102 7.003-.734 12.072-5.67 13.478-12.244v12.497h22.163l-2.638-8.628h-8.378v-3.53h8.088v-7.795h-8.089v-3.575h11.828c-.03 4.04-.04 8.082.086 12.117.183 5.84 3.453 9.897 8.749 11.462 3.436 1.016 6.942 1.119 10.438.332 6.216-1.4 9.708-5.276 9.97-11.675.138-3.357.168-6.72.17-10.081.306 3.127 2.013 6.182 5.664 7.72 2.046.862 4.224 1.428 6.22 2.381.645.307 1.333 1.111 1.228 2.137-.044.544-.712 1.068-1.423 1.44-.357.187-1.368.122-1.788-.027-2.01-.71-3.995-1.483-6.21-2.317-1.5 1.983-3.217 4.248-4.924 6.502 4.791 4.375 14.003 5.711 19.622 2.934 4.58-2.264 6.78-7.15 5.513-12.098" fill="#FFF"></path>
                    </g>
                </svg>