<svg xmlns="http://www.w3.org/2000/svg" width="184" height="44" viewBox="0 0 184 44" fill="none"><rect width="44.6197" height="44" rx="8.67606" fill="#FF2F0A"></rect><path d="M10.2762 21.432C12.7935 21.432 14.8342 19.3913 14.8342 16.874C14.8342 14.3567 12.7935 12.316 10.2762 12.316C7.75888 12.316 5.71821 14.3567 5.71821 16.874C5.71821 19.3913 7.75888 21.432 10.2762 21.432Z" fill="white"></path><path d="M36.0384 12.8374C36.0384 12.8374 39.1994 14.3542 38.3393 18.1221C38.3393 18.1221 38.0106 19.8417 35.8862 21.0299C35.8862 21.0299 33.6203 22.6518 32.9111 25.0382C32.876 25.1554 32.8363 25.2706 32.7939 25.3858C32.707 25.6236 32.5554 26.2069 32.5736 27.3519C32.5736 27.3519 32.7002 30.841 28.8057 31.6755C28.8057 31.6755 27.4404 32.0197 25.9775 31.2478C24.0693 30.2415 23.1189 28.008 23.7332 25.9401C23.911 25.3413 24.2289 24.7028 24.7597 24.0643C24.7597 24.0643 24.8903 23.8588 25.8427 23.223C26.0731 23.0694 26.3102 22.9253 26.5493 22.7865C27.0181 22.5144 28.3342 21.5627 29.0327 19.1587C29.0327 19.1587 29.4584 17.8231 29.4638 16.6928C29.4658 16.1601 29.5648 15.6306 29.7831 15.1443C30.1205 14.392 30.7671 13.4207 31.9721 12.8266C32.9104 12.3639 33.9867 12.2507 35.0065 12.4851C35.3298 12.5592 35.6828 12.671 36.0377 12.8374H36.0384Z" fill="white"></path><path d="M24.2869 12.826C24.2869 12.826 27.4479 14.3428 26.5878 18.1107C26.5878 18.1107 26.2591 19.8303 24.1347 21.0185C24.1347 21.0185 21.8688 22.6404 21.1596 25.0268C21.1245 25.144 21.0848 25.2592 21.0424 25.3744C20.9555 25.6122 20.8039 26.1955 20.8221 27.3405C20.8221 27.3405 20.9487 30.8295 17.0542 31.6641C17.0542 31.6641 15.6889 32.0083 14.2259 31.2364C12.3178 30.2301 11.3674 27.9966 11.9816 25.9287C12.1595 25.3299 12.4774 24.6914 13.0082 24.0529C13.0082 24.0529 13.1388 23.8474 14.0912 23.2116C14.3216 23.058 14.5587 22.9139 14.7978 22.7751C15.2666 22.503 16.5827 21.5513 17.2812 19.1473C17.2812 19.1473 17.7069 17.8117 17.7123 16.6814C17.7143 16.1486 17.8133 15.6192 18.0316 15.1329C18.369 14.3806 19.0156 13.4093 20.2206 12.8152C21.1589 12.3525 22.2352 12.2393 23.255 12.4737C23.5783 12.5478 23.9313 12.6596 24.2862 12.826H24.2869Z" fill="white"></path><path d="M56.656 18.8146L60.1232 26.4254L63.7312 18.8146H66.9447L70.5528 26.6509L74.189 18.8146H79.8548L72.3004 33.2751H68.8897L65.2816 25.3542L61.8426 33.2751H58.3755L50.962 18.8146H56.656ZM91.4958 23.9448C91.3267 23.2307 90.9791 22.6575 90.4529 22.2253C89.9267 21.7931 89.2878 21.577 88.5361 21.577C87.7468 21.577 87.0985 21.7837 86.5911 22.1971C86.1025 22.6106 85.7924 23.1931 85.6609 23.9448H91.4958ZM85.52 26.9045C85.52 29.1032 86.5535 30.2026 88.6206 30.2026C89.7294 30.2026 90.5656 29.7515 91.1294 28.8495H96.0623C95.0663 32.1569 92.5764 33.8106 88.5925 33.8106C87.371 33.8106 86.2528 33.6321 85.2381 33.2751C84.2233 32.8992 83.3495 32.373 82.6166 31.6965C81.9025 31.02 81.3481 30.212 80.9535 29.2723C80.5589 28.3327 80.3615 27.2804 80.3615 26.1153C80.3615 24.9126 80.5495 23.832 80.9253 22.8737C81.3011 21.8965 81.8367 21.0696 82.532 20.3931C83.2273 19.7166 84.0636 19.1998 85.0408 18.8428C86.0367 18.4669 87.1549 18.279 88.3951 18.279C89.6166 18.279 90.716 18.4669 91.6931 18.8428C92.6703 19.1998 93.4972 19.726 94.1737 20.4213C94.8502 21.1166 95.367 21.9716 95.724 22.9864C96.0811 23.9824 96.2596 25.1099 96.2596 26.369V26.9045H85.52ZM110.705 26.0871C110.705 25.6361 110.62 25.2133 110.451 24.8186C110.282 24.4052 110.047 24.0482 109.747 23.7475C109.446 23.4468 109.098 23.2119 108.704 23.0428C108.309 22.8549 107.877 22.7609 107.407 22.7609C106.956 22.7609 106.533 22.8455 106.138 23.0146C105.744 23.1837 105.396 23.4186 105.095 23.7193C104.814 24.02 104.579 24.377 104.391 24.7904C104.222 25.1851 104.137 25.6079 104.137 26.0589C104.137 26.5099 104.222 26.9327 104.391 27.3274C104.56 27.722 104.795 28.0697 105.095 28.3703C105.396 28.6522 105.744 28.8871 106.138 29.075C106.552 29.2442 106.984 29.3287 107.435 29.3287C107.886 29.3287 108.309 29.2442 108.704 29.075C109.098 28.9059 109.436 28.671 109.718 28.3703C110.019 28.0697 110.254 27.722 110.423 27.3274C110.611 26.9327 110.705 26.5193 110.705 26.0871ZM104.278 9.87895V20.2522C105.481 18.9931 106.984 18.3636 108.788 18.3636C109.859 18.3636 110.836 18.5703 111.72 18.9837C112.622 19.3783 113.383 19.9233 114.003 20.6186C114.642 21.2951 115.14 22.1032 115.497 23.0428C115.854 23.9636 116.032 24.9502 116.032 26.0025C116.032 27.0737 115.845 28.0791 115.469 29.0187C115.112 29.9583 114.604 30.7757 113.947 31.471C113.289 32.1663 112.509 32.7207 111.607 33.1341C110.724 33.5287 109.765 33.7261 108.732 33.7261C106.853 33.7261 105.368 33.0402 104.278 31.6683V33.2751H99.176V9.87895H104.278ZM128.525 22.5354C127.585 22.0468 126.664 21.8025 125.762 21.8025C125.292 21.8025 124.907 21.8965 124.606 22.0844C124.325 22.2723 124.184 22.526 124.184 22.8455C124.184 23.0146 124.202 23.1555 124.24 23.2683C124.296 23.3622 124.4 23.4562 124.55 23.5502C124.719 23.6441 124.954 23.7287 125.255 23.8039C125.574 23.879 125.988 23.973 126.495 24.0857C127.904 24.3676 128.957 24.875 129.652 25.6079C130.347 26.322 130.695 27.2428 130.695 28.3703C130.695 29.216 130.526 29.977 130.188 30.6536C129.849 31.3301 129.38 31.9032 128.778 32.373C128.177 32.824 127.453 33.1717 126.608 33.416C125.762 33.6791 124.832 33.8106 123.817 33.8106C121.863 33.8106 119.937 33.2563 118.039 32.1475L119.899 28.5395C121.327 29.5166 122.68 30.0052 123.958 30.0052C124.428 30.0052 124.813 29.9019 125.114 29.6952C125.415 29.4885 125.565 29.2254 125.565 28.9059C125.565 28.718 125.537 28.5676 125.48 28.4549C125.443 28.3233 125.349 28.2106 125.198 28.1166C125.048 28.0039 124.823 27.9099 124.522 27.8348C124.24 27.7408 123.864 27.6468 123.394 27.5529C121.816 27.2334 120.707 26.7636 120.068 26.1435C119.448 25.5045 119.138 24.6307 119.138 23.522C119.138 22.7139 119.288 21.9904 119.589 21.3515C119.89 20.6938 120.322 20.1394 120.886 19.6884C121.449 19.2374 122.126 18.8897 122.915 18.6454C123.723 18.4011 124.616 18.279 125.593 18.279C127.19 18.279 128.741 18.5891 130.244 19.2092L128.525 22.5354ZM143.853 23.9448C143.684 23.2307 143.336 22.6575 142.81 22.2253C142.284 21.7931 141.645 21.577 140.893 21.577C140.104 21.577 139.456 21.7837 138.948 22.1971C138.46 22.6106 138.15 23.1931 138.018 23.9448H143.853ZM137.877 26.9045C137.877 29.1032 138.911 30.2026 140.978 30.2026C142.087 30.2026 142.923 29.7515 143.487 28.8495H148.419C147.423 32.1569 144.934 33.8106 140.95 33.8106C139.728 33.8106 138.61 33.6321 137.595 33.2751C136.58 32.8992 135.707 32.373 134.974 31.6965C134.26 31.02 133.705 30.212 133.311 29.2723C132.916 28.3327 132.719 27.2804 132.719 26.1153C132.719 24.9126 132.907 23.832 133.282 22.8737C133.658 21.8965 134.194 21.0696 134.889 20.3931C135.584 19.7166 136.421 19.1998 137.398 18.8428C138.394 18.4669 139.512 18.279 140.752 18.279C141.974 18.279 143.073 18.4669 144.05 18.8428C145.027 19.1998 145.854 19.726 146.531 20.4213C147.207 21.1166 147.724 21.9716 148.081 22.9864C148.438 23.9824 148.617 25.1099 148.617 26.369V26.9045H137.877ZM151.533 18.8146H156.635V21.1824C157.18 20.3179 157.847 19.6602 158.637 19.2092C159.426 18.7394 160.347 18.5045 161.399 18.5045C161.531 18.5045 161.671 18.5045 161.822 18.5045C161.991 18.5045 162.179 18.5233 162.386 18.5609V23.4374C161.709 23.0992 160.976 22.93 160.187 22.93C159.003 22.93 158.11 23.2871 157.509 24.0012C156.926 24.6965 156.635 25.7206 156.635 27.0737V33.2751H151.533V18.8146ZM170.534 18.8146L173.973 26.228L177.468 18.8146H183.162L175.636 33.2751H172.225L164.784 18.8146H170.534Z" fill="white"></path></svg>