<svg width="40" height="40" viewBox="0 0 40 40" fill="none" xmlns="http://www.w3.org/2000/svg">
<g clip-path="url(#clip0_2773_2533)">
<path d="M32 0H8C3.58172 0 0 3.58172 0 8V32C0 36.4183 3.58172 40 8 40H32C36.4183 40 40 36.4183 40 32V8C40 3.58172 36.4183 0 32 0Z" fill="#1F1F1F"/>
<rect x="16" y="25" width="6" height="5" fill="white"/>
<rect x="20" y="25" width="4" height="5" fill="white"/>
<rect x="13" y="20" width="5" height="5" fill="white"/>
<rect x="11" y="15" width="5" height="5" fill="white"/>
<rect x="22" y="20" width="5" height="5" fill="white"/>
<rect x="24" y="14" width="5" height="6" fill="white"/>
<rect x="24" y="10" width="5" height="5" fill="white"/>
<rect x="11" y="10" width="5" height="5" fill="white"/>
</g>
<defs>
<clipPath id="clip0_2773_2533">
<rect width="40" height="40" fill="white"/>
</clipPath>
</defs>
</svg>
