<svg width="64" height="64" viewBox="0 0 64 64" fill="none" xmlns="http://www.w3.org/2000/svg">
<g clip-path="url(#clip0_10820_4119)">
<path d="M32.577 24.3031L48.4131 8.6792H64.0232V24.3031L32.577 56.9096V24.3031Z" fill="black"/>
<path d="M0 8.46448C0 8.24552 0 8.13604 0.0679605 8.06802C0.135921 8 0.245302 8 0.464064 8H15.8246C16.0434 8 16.1527 8 16.2207 8.06802C16.2886 8.13604 16.2886 8.24552 16.2886 8.46448V39.4851C16.2886 39.9623 16.2886 40.2009 16.1454 40.2603C16.0022 40.3197 15.8336 40.151 15.4964 39.8135L0.135922 24.4393C0.0688571 24.3721 0.0353249 24.3386 0.0176624 24.2959C0 24.2532 0 24.2057 0 24.1108V8.46448Z" fill="black"/>
<path d="M16.2882 41.0709C16.2882 40.852 16.2882 40.7425 16.3562 40.6745C16.4241 40.6064 16.5335 40.6064 16.7523 40.6064H32.5768V56.9097H16.7523C16.5335 56.9097 16.4241 56.9097 16.3562 56.8417C16.2882 56.7737 16.2882 56.6642 16.2882 56.4453V41.0709Z" fill="black"/>
</g>
<defs>
<clipPath id="clip0_10820_4119">
<rect width="64" height="49" fill="white" transform="translate(0 8)"/>
</clipPath>
</defs>
</svg>
