<svg width="550" height="103" viewBox="0 0 550 103" fill="none" xmlns="http://www.w3.org/2000/svg">
<path d="M121.866 89.0076C122.117 89.3686 122.016 89.8569 121.64 90.0982L107.173 99.3711C106.797 99.6125 106.287 99.5154 106.036 99.1544L62.0524 36.0666C61.8007 35.7056 61.9019 35.2173 62.2784 34.9759L76.745 25.703C77.1215 25.4617 77.6307 25.5587 77.8824 25.9197L121.866 89.0076Z" fill="black"/>
<path d="M65.3022 3.1164C65.5542 2.7556 66.0636 2.659 66.4398 2.90063L79.9332 11.5656C80.3095 11.8073 80.4102 12.2957 80.1582 12.6565L28.5259 86.5804C28.2739 86.9412 27.7646 87.0378 27.3883 86.7961L13.895 78.1311C13.5187 77.8895 13.418 77.4011 13.67 77.0403L65.3022 3.1164Z" fill="black"/>
<path d="M96.3966 83.0296C96.8494 83.035 97.2119 83.3914 97.2062 83.8256L96.9685 101.992C96.9629 102.426 96.5912 102.773 96.1383 102.768L0.80971 101.621C0.356874 101.616 -0.00561503 101.259 6.58708e-05 100.825L0.237737 82.6592C0.243418 82.225 0.615119 81.8774 1.06795 81.8829L96.3966 83.0296Z" fill="black"/>
<path d="M165.49 7.168H200.562V96.768H188.53V56.704H156.146V96.768H144.242V29.056L165.49 7.168ZM156.146 32.128V45.696H188.53V18.176H169.842L156.146 32.128ZM221.76 27.904H258.24L269.248 43.776L247.616 66.048H222.912V78.72L227.648 85.632H253.888L261.056 78.592L267.712 87.04L258.24 96.768H221.76L211.136 81.024V38.912L221.76 27.904ZM222.912 42.752V55.68H243.136L254.912 43.264L252.096 38.912H226.624L222.912 42.752ZM291.47 1.024H303.502V27.776H324.238V38.912H303.502V78.976L307.982 85.76H320.27L328.334 77.568L334.606 86.656L325.134 96.768H302.222L291.47 81.024V38.912H281.358V27.776H291.47V1.024ZM346.588 0H358.62V33.408L367.708 27.904H393.948L405.084 43.648V96.768H392.924V45.44L388.444 38.912H362.332L358.62 42.368V96.768H346.588V0ZM425.13 27.904H461.61L472.618 43.776L450.986 66.048H426.282V78.72L431.018 85.632H457.258L464.426 78.592L471.082 87.04L461.61 96.768H425.13L414.506 81.024V38.912L425.13 27.904ZM426.282 42.752V55.68H446.506L458.282 43.264L455.466 38.912H429.994L426.282 42.752ZM481.4 27.904H488.056L499.96 34.944L506.744 27.904H534.008L541.304 38.784L532.216 44.928L528.248 38.912H511.352L506.232 44.288V85.888H524.408V96.768H481.4V85.888H494.328V45.568L489.72 38.912H481.4V27.904Z" fill="black"/>
</svg>
