<svg width="5307" height="1165" viewBox="0 0 5307 1165" fill="none" xmlns="http://www.w3.org/2000/svg">
<path d="M1320 320H1410.75L1254.75 845H1155.75L1320 320ZM1452.75 320L1618.5 845H1520.25L1362 320H1452.75ZM1244.25 645.5H1527V729.5H1244.25V645.5ZM1785.87 575.75H1871.37V659.75H1785.87V575.75ZM1871.37 575.75C1898.37 575.75 1921.37 573.25 1940.37 568.25C1959.87 563.25 1974.62 554.5 1984.62 542C1995.12 529.5 2000.37 512 2000.37 489.5C2000.37 467 1995.12 449.5 1984.62 437C1974.62 424.5 1959.87 415.75 1940.37 410.75C1921.37 405.75 1898.37 403.25 1871.37 403.25V320C1917.37 320 1957.37 325.5 1991.37 336.5C2025.87 347 2052.62 364.5 2071.62 389C2090.62 413.5 2100.12 447 2100.12 489.5C2100.12 531.5 2090.62 565 2071.62 590C2052.62 614.5 2025.87 632.25 1991.37 643.25C1957.37 654.25 1917.37 659.75 1871.37 659.75V575.75ZM1785.87 320H1871.37V403.25H1785.87V320ZM1887.12 602.75H1982.37L2100.12 845H1991.37L1887.12 602.75ZM1785.87 369.5V845H1689.87V369.5H1785.87ZM2387.05 845L2242.3 320H2339.8L2478.55 845H2387.05ZM2522.05 845H2431.3L2569.3 320H2667.55L2522.05 845ZM2186.8 320H2279.05V845H2186.8V320ZM2630.8 320H2722.3V845H2630.8V320ZM2958.02 320H3048.77L2892.77 845H2793.77L2958.02 320ZM3090.77 320L3256.52 845H3158.27L3000.02 320H3090.77ZM2882.27 645.5H3165.02V729.5H2882.27V645.5ZM3407.34 320H3503.34V845H3407.34V320ZM3243.09 320H3667.59V403.25H3243.09V320ZM4158.38 620C4158.38 669.5 4151.38 712 4137.38 747.5C4123.38 782.5 4100.88 809.5 4069.88 828.5C4038.88 847.5 3998.13 857 3947.63 857C3896.63 857 3855.63 847.5 3824.63 828.5C3793.63 809.5 3770.88 782.5 3756.38 747.5C3742.38 712 3735.38 669.5 3735.38 620H3831.38C3831.38 651.5 3834.63 678.5 3841.13 701C3848.13 723 3860.13 740 3877.13 752C3894.13 764 3917.63 770 3947.63 770C3977.63 770 4000.88 764 4017.38 752C4034.38 740 4046.13 723 4052.63 701C4059.63 678.5 4063.13 651.5 4063.13 620H4158.38ZM3735.38 320H3831.38V620H3735.38V320ZM4063.13 320H4158.38V620H4063.13V320ZM4345.97 575.75H4431.47V659.75H4345.97V575.75ZM4431.47 575.75C4458.47 575.75 4481.47 573.25 4500.47 568.25C4519.97 563.25 4534.72 554.5 4544.72 542C4555.22 529.5 4560.47 512 4560.47 489.5C4560.47 467 4555.22 449.5 4544.72 437C4534.72 424.5 4519.97 415.75 4500.47 410.75C4481.47 405.75 4458.47 403.25 4431.47 403.25V320C4477.47 320 4517.47 325.5 4551.47 336.5C4585.97 347 4612.72 364.5 4631.72 389C4650.72 413.5 4660.22 447 4660.22 489.5C4660.22 531.5 4650.72 565 4631.72 590C4612.72 614.5 4585.97 632.25 4551.47 643.25C4517.47 654.25 4477.47 659.75 4431.47 659.75V575.75ZM4345.97 320H4431.47V403.25H4345.97V320ZM4447.22 602.75H4542.47L4660.22 845H4551.47L4447.22 602.75ZM4345.97 369.5V845H4249.97V369.5H4345.97ZM4746.91 795.5V320H4842.91V795.5H4746.91ZM4842.91 845V761H5113.66V845H4842.91ZM4833.16 623V539H5080.66V623H4833.16ZM4839.16 404V320H5110.66V404H4839.16Z" fill="#090808"/>
<path d="M572.503 789.177L100.807 1061.51L0 917.544L506.271 625.248L572.503 789.177Z" fill="url(#paint0_linear_138_20)"/>
<path d="M847 913.854L727.258 1084.86L435.802 363.483L530.219 129.795L847 913.854Z" fill="url(#paint1_linear_138_20)"/>
<path d="M250.4 733.811L4.11963 876L325.32 81H514.153L250.4 733.811Z" fill="url(#paint2_linear_138_20)"/>
<defs>
<linearGradient id="paint0_linear_138_20" x1="572.503" y1="693.534" x2="2.14693e-05" y2="993.225" gradientUnits="userSpaceOnUse">
<stop offset="0.0336538" stop-color="#36312F"/>
<stop offset="0.894231" stop-color="#9F938C"/>
</linearGradient>
<linearGradient id="paint1_linear_138_20" x1="442.06" y1="129.795" x2="840.742" y2="1084.86" gradientUnits="userSpaceOnUse">
<stop offset="0.0721154" stop-color="#36312F"/>
<stop offset="0.8125" stop-color="#9F938C"/>
</linearGradient>
<linearGradient id="paint2_linear_138_20" x1="85.817" y1="876" x2="432.456" y2="81.0004" gradientUnits="userSpaceOnUse">
<stop offset="0.0817308" stop-color="#36312F"/>
<stop offset="0.884615" stop-color="#9F938C"/>
</linearGradient>
</defs>
</svg>
