<svg width="1000" height="240" viewBox="0 0 1000 240" fill="none" xmlns="http://www.w3.org/2000/svg">
<path d="M26.1184 101.6C23.2939 98.7833 23.2939 94.2166 26.1184 91.4L97.7167 20H200L77.26 142.4C74.4355 145.217 69.8562 145.217 67.0317 142.4L26.1184 101.6Z" fill="url(#paint0_linear_577_39181)"/>
<path d="M155.251 77.375L200 122V224L104.109 128.375L155.251 77.375Z" fill="url(#paint1_linear_577_39181)"/>
<path d="M813.788 77.8691C822.77 77.8691 830.293 80.0567 836.358 84.4307C837.617 85.3176 838.812 86.2734 839.945 87.2959V80.4941H858.404V179.525C858.404 181.916 858.288 184.191 858.055 186.349C857.88 188.565 857.559 190.724 857.093 192.823C855.693 198.947 853.01 203.963 849.044 207.87C845.078 211.836 840.149 214.781 834.259 216.706C828.427 218.631 821.953 219.593 814.838 219.593C809.589 219.593 804.544 218.777 799.703 217.144C794.921 215.511 790.605 213.148 786.756 210.057C782.907 207.024 779.757 203.35 777.308 199.034L796.729 189.411C798.536 192.852 801.074 195.389 804.34 197.022C807.664 198.714 811.193 199.559 814.926 199.559C819.3 199.559 823.208 198.772 826.648 197.197C830.089 195.681 832.743 193.406 834.609 190.373C836.534 187.399 837.438 183.666 837.321 179.176V170.212C836.948 170.494 836.569 170.769 836.184 171.039C829.943 175.413 822.216 177.601 813.001 177.601C804.311 177.601 796.729 175.413 790.255 171.039C783.781 166.665 778.766 160.716 775.208 153.192C771.65 145.669 769.871 137.183 769.871 127.735C769.871 118.171 771.65 109.656 775.208 102.19C778.824 94.6669 783.927 88.7465 790.518 84.4307C797.108 80.0566 804.865 77.8692 813.788 77.8691ZM451.808 77.8691C459.156 77.8692 465.659 79.0067 471.316 81.2812C477.032 83.5558 481.639 86.793 485.139 90.9922C488.638 95.1913 490.796 100.119 491.612 105.776L470.092 109.626C469.567 105.602 467.729 102.424 464.58 100.091C461.489 97.7579 457.348 96.4449 452.157 96.1533C447.2 95.8617 443.205 96.6198 440.172 98.4277C437.139 100.177 435.623 102.657 435.623 105.864C435.623 107.672 436.235 109.218 437.46 110.501C438.685 111.784 441.134 113.067 444.809 114.351C448.541 115.634 454.082 117.208 461.431 119.074C468.954 120.999 474.961 123.215 479.452 125.723C484.001 128.172 487.267 131.118 489.25 134.559C491.291 138 492.312 142.17 492.312 147.069C492.312 156.576 488.842 164.041 481.901 169.465C475.019 174.889 465.484 177.601 453.295 177.601C441.63 177.601 432.153 174.977 424.862 169.728C417.572 164.479 413.14 157.1 411.565 147.594L433.086 144.27C434.194 148.935 436.644 152.609 440.435 155.292C444.226 157.975 449.008 159.316 454.782 159.316C459.856 159.316 463.764 158.325 466.505 156.342C469.304 154.301 470.704 151.53 470.704 148.031C470.704 145.873 470.179 144.153 469.129 142.87C468.137 141.529 465.921 140.245 462.48 139.021C459.039 137.796 453.761 136.25 446.646 134.384C438.714 132.284 432.415 130.039 427.749 127.647C423.083 125.198 419.73 122.311 417.688 118.986C415.647 115.662 414.627 111.638 414.627 106.914C414.627 101.024 416.173 95.8908 419.264 91.5166C422.355 87.1426 426.67 83.7889 432.211 81.4561C437.752 79.0648 444.284 77.8691 451.808 77.8691ZM642.225 77.8691C651.731 77.8691 660.013 79.9983 667.07 84.2559C674.127 88.5134 679.609 94.4042 683.517 101.928C687.424 109.393 689.378 117.996 689.378 127.735C689.378 137.533 687.396 146.194 683.43 153.718C679.522 161.183 674.039 167.044 666.982 171.302C659.925 175.501 651.673 177.601 642.225 177.601C632.777 177.601 624.524 175.472 617.467 171.215C610.41 166.957 604.928 161.095 601.021 153.63C597.171 146.106 595.246 137.475 595.246 127.735C595.246 117.821 597.229 109.13 601.195 101.665C605.161 94.1998 610.673 88.3672 617.729 84.168C624.786 79.9689 632.952 77.8692 642.225 77.8691ZM924.667 77.8691C934.465 77.8692 942.776 80.1729 949.6 84.7803C956.482 89.3294 961.585 95.7743 964.909 104.114C968.234 112.454 969.487 122.282 968.671 133.597H900.287C900.995 140.381 902.997 145.834 906.295 149.956C910.494 155.205 916.619 157.829 924.667 157.829C929.857 157.829 934.319 156.692 938.052 154.418C941.843 152.085 944.759 148.731 946.8 144.357L967.621 150.656C964.005 159.171 958.406 165.791 950.824 170.515C943.301 175.239 934.99 177.601 925.892 177.601C916.327 177.601 907.928 175.53 900.696 171.39C893.464 167.249 887.807 161.504 883.725 154.155C879.7 146.807 877.689 138.35 877.688 128.785C877.688 118.462 879.671 109.51 883.637 101.928C887.603 94.2875 893.114 88.3672 900.171 84.168C907.228 79.9688 915.394 77.8691 924.667 77.8691ZM281.084 174.977H260V49H281.084V174.977ZM356.805 77.7822C363.803 77.7822 369.577 78.9485 374.126 81.2812C378.675 83.6141 382.292 86.5891 384.975 90.2051C387.657 93.821 389.64 97.6705 390.923 101.753C392.206 105.835 393.023 109.714 393.373 113.388C393.781 117.004 393.985 119.949 393.985 122.224V174.977H372.639V129.485C372.639 126.511 372.435 123.216 372.026 119.6C371.618 115.984 370.656 112.513 369.14 109.188C367.682 105.806 365.465 103.036 362.491 100.878C359.575 98.72 355.608 97.6406 350.593 97.6406C347.91 97.6407 345.256 98.0783 342.632 98.9531C340.007 99.828 337.617 101.345 335.459 103.503C333.359 105.603 331.668 108.518 330.385 112.251C329.102 115.925 328.46 120.649 328.46 126.423V174.977H307.114V80.4941H325.923V90.9775C328.334 88.1488 331.163 85.7038 334.409 83.6436C340.475 79.7361 347.94 77.7822 356.805 77.7822ZM587.322 70.084H532.558V101.49H576.824V122.486H532.558V174.977H511.474V49H587.322V70.084ZM753.183 80.1445C756.157 79.9113 759.044 80.0276 761.843 80.4941V100.178C759.043 99.3614 755.807 99.0991 752.133 99.3906C748.517 99.6822 745.25 100.702 742.334 102.452C739.418 104.027 737.027 106.04 735.161 108.489C733.353 110.939 732.012 113.738 731.137 116.888C730.262 119.979 729.824 123.332 729.824 126.948V174.977H708.653V80.4941H727.287V95.5869C727.998 94.3174 728.785 93.1061 729.649 91.9541C731.632 89.3297 733.994 87.1718 736.735 85.4805C739.068 83.9059 741.634 82.6815 744.434 81.8066C747.291 80.8735 750.208 80.3195 753.183 80.1445ZM816.938 96.7656C811.28 96.7656 806.615 98.1655 802.94 100.965C799.266 103.706 796.554 107.439 794.805 112.163C793.055 116.829 792.18 122.02 792.18 127.735C792.18 133.509 793.025 138.758 794.717 143.482C796.466 148.148 799.12 151.852 802.678 154.593C806.235 157.334 810.755 158.704 816.237 158.704C821.894 158.704 826.444 157.421 829.885 154.855C833.384 152.231 835.921 148.586 837.496 143.92C839.129 139.254 839.945 133.859 839.945 127.735C839.945 121.553 839.129 116.158 837.496 111.551C835.921 106.885 833.442 103.269 830.06 100.703C826.677 98.0787 822.303 96.7656 816.938 96.7656ZM642.225 97.6406C636.567 97.6407 631.902 98.9241 628.228 101.49C624.612 103.998 621.928 107.526 620.179 112.075C618.429 116.566 617.555 121.786 617.555 127.735C617.555 136.892 619.625 144.211 623.766 149.693C627.965 155.117 634.118 157.829 642.225 157.829C650.623 157.829 656.864 155.03 660.946 149.431C665.029 143.832 667.07 136.6 667.07 127.735C667.07 118.579 664.999 111.288 660.858 105.864C656.718 100.382 650.506 97.6406 642.225 97.6406ZM925.541 96.3281C916.91 96.3282 910.494 99.0114 906.295 104.377C903.597 107.786 901.767 112.219 900.803 117.675H947.27C946.508 111.524 944.865 106.771 942.338 103.415C938.78 98.6909 933.181 96.3281 925.541 96.3281Z" fill="black"/>
<defs>
<linearGradient id="paint0_linear_577_39181" x1="22.3955" y1="23.0754" x2="292.628" y2="116.332" gradientUnits="userSpaceOnUse">
<stop/>
<stop offset="1" stop-opacity="0.4"/>
</linearGradient>
<linearGradient id="paint1_linear_577_39181" x1="309.006" y1="103.841" x2="130.001" y2="103.841" gradientUnits="userSpaceOnUse">
<stop/>
<stop offset="1" stop-opacity="0.4"/>
</linearGradient>
</defs>
</svg>
