<svg width="98" height="26" viewBox="0 0 98 26" fill="none" xmlns="http://www.w3.org/2000/svg">
<g clip-path="url(#clip0_585_2343)">
<g clip-path="url(#clip1_585_2343)">
<mask id="mask0_585_2343" style="mask-type:luminance" maskUnits="userSpaceOnUse" x="0" y="0" width="24" height="26">
<path d="M23.1473 0.0976562H0.015625V25.7996H23.1473V0.0976562Z" fill="white"/>
</mask>
<g mask="url(#mask0_585_2343)">
<path d="M7.09895 5.21718C7.71022 5.21718 8.20574 4.72959 8.20574 4.12812C8.20574 3.52665 7.71022 3.03906 7.09895 3.03906C6.48769 3.03906 5.99219 3.52665 5.99219 4.12812C5.99219 4.72959 6.48769 5.21718 7.09895 5.21718Z" fill="black" fill-opacity="0.12"/>
<path d="M10.0912 5.21718C10.7024 5.21718 11.198 4.72959 11.198 4.12812C11.198 3.52665 10.7024 3.03906 10.0912 3.03906C9.4799 3.03906 8.98438 3.52665 8.98438 4.12812C8.98438 4.72959 9.4799 5.21718 10.0912 5.21718Z" fill="black" fill-opacity="0.12"/>
<path d="M13.0755 5.21718C13.6868 5.21718 14.1823 4.72959 14.1823 4.12812C14.1823 3.52665 13.6868 3.03906 13.0755 3.03906C12.4643 3.03906 11.9688 3.52665 11.9688 4.12812C11.9688 4.72959 12.4643 5.21718 13.0755 5.21718Z" fill="black" fill-opacity="0.12"/>
<path d="M1.1224 8.15664C1.73366 8.15664 2.22918 7.66905 2.22918 7.06758C2.22918 6.46611 1.73366 5.97852 1.1224 5.97852C0.511147 5.97852 0.015625 6.46611 0.015625 7.06758C0.015625 7.66905 0.511147 8.15664 1.1224 8.15664Z" fill="black" fill-opacity="0.12"/>
<path d="M4.10677 8.15664C4.71803 8.15664 5.21355 7.66905 5.21355 7.06758C5.21355 6.46611 4.71803 5.97852 4.10677 5.97852C3.49552 5.97852 3 6.46611 3 7.06758C3 7.66905 3.49552 8.15664 4.10677 8.15664Z" fill="black" fill-opacity="0.12"/>
<path d="M7.09895 8.15664C7.71022 8.15664 8.20574 7.66905 8.20574 7.06758C8.20574 6.46611 7.71022 5.97852 7.09895 5.97852C6.48769 5.97852 5.99219 6.46611 5.99219 7.06758C5.99219 7.66905 6.48769 8.15664 7.09895 8.15664Z" fill="black" fill-opacity="0.12"/>
<path d="M10.0912 8.15664C10.7024 8.15664 11.198 7.66905 11.198 7.06758C11.198 6.46611 10.7024 5.97852 10.0912 5.97852C9.4799 5.97852 8.98438 6.46611 8.98438 7.06758C8.98438 7.66905 9.4799 8.15664 10.0912 8.15664Z" fill="black" fill-opacity="0.12"/>
<path d="M22.0443 8.15664C22.6556 8.15664 23.1511 7.66905 23.1511 7.06758C23.1511 6.46611 22.6556 5.97852 22.0443 5.97852C21.433 5.97852 20.9375 6.46611 20.9375 7.06758C20.9375 7.66905 21.433 8.15664 22.0443 8.15664Z" fill="black" fill-opacity="0.12"/>
<path d="M1.1224 11.098C1.73366 11.098 2.22918 10.6105 2.22918 10.009C2.22918 9.40751 1.73366 8.91992 1.1224 8.91992C0.511147 8.91992 0.015625 9.40751 0.015625 10.009C0.015625 10.6105 0.511147 11.098 1.1224 11.098Z" fill="black" fill-opacity="0.12"/>
<path d="M4.10677 11.098C4.71803 11.098 5.21355 10.6105 5.21355 10.009C5.21355 9.40751 4.71803 8.91992 4.10677 8.91992C3.49552 8.91992 3 9.40751 3 10.009C3 10.6105 3.49552 11.098 4.10677 11.098Z" fill="black" fill-opacity="0.12"/>
<path d="M7.09895 11.098C7.71022 11.098 8.20574 10.6105 8.20574 10.009C8.20574 9.40751 7.71022 8.91992 7.09895 8.91992C6.48769 8.91992 5.99219 9.40751 5.99219 10.009C5.99219 10.6105 6.48769 11.098 7.09895 11.098Z" fill="black" fill-opacity="0.12"/>
<path d="M10.0912 11.098C10.7024 11.098 11.198 10.6105 11.198 10.009C11.198 9.40751 10.7024 8.91992 10.0912 8.91992C9.4799 8.91992 8.98438 9.40751 8.98438 10.009C8.98438 10.6105 9.4799 11.098 10.0912 11.098Z" fill="black" fill-opacity="0.12"/>
<path d="M19.0521 11.098C19.6633 11.098 20.1589 10.6105 20.1589 10.009C20.1589 9.40751 19.6633 8.91992 19.0521 8.91992C18.4408 8.91992 17.9453 9.40751 17.9453 10.009C17.9453 10.6105 18.4408 11.098 19.0521 11.098Z" fill="black" fill-opacity="0.12"/>
<path d="M22.0443 11.098C22.6556 11.098 23.1511 10.6105 23.1511 10.009C23.1511 9.40751 22.6556 8.91992 22.0443 8.91992C21.433 8.91992 20.9375 9.40751 20.9375 10.009C20.9375 10.6105 21.433 11.098 22.0443 11.098Z" fill="black" fill-opacity="0.12"/>
<path d="M1.1224 14.0375C1.73366 14.0375 2.22918 13.5499 2.22918 12.9484C2.22918 12.347 1.73366 11.8594 1.1224 11.8594C0.511147 11.8594 0.015625 12.347 0.015625 12.9484C0.015625 13.5499 0.511147 14.0375 1.1224 14.0375Z" fill="black" fill-opacity="0.12"/>
<path d="M4.10677 14.0375C4.71803 14.0375 5.21355 13.5499 5.21355 12.9484C5.21355 12.347 4.71803 11.8594 4.10677 11.8594C3.49552 11.8594 3 12.347 3 12.9484C3 13.5499 3.49552 14.0375 4.10677 14.0375Z" fill="black" fill-opacity="0.12"/>
<path d="M7.09895 14.0375C7.71022 14.0375 8.20574 13.5499 8.20574 12.9484C8.20574 12.347 7.71022 11.8594 7.09895 11.8594C6.48769 11.8594 5.99219 12.347 5.99219 12.9484C5.99219 13.5499 6.48769 14.0375 7.09895 14.0375Z" fill="black" fill-opacity="0.12"/>
<path d="M16.0677 14.0375C16.679 14.0375 17.1745 13.5499 17.1745 12.9484C17.1745 12.347 16.679 11.8594 16.0677 11.8594C15.4565 11.8594 14.9609 12.347 14.9609 12.9484C14.9609 13.5499 15.4565 14.0375 16.0677 14.0375Z" fill="black" fill-opacity="0.12"/>
<path d="M19.0521 14.0375C19.6633 14.0375 20.1589 13.5499 20.1589 12.9484C20.1589 12.347 19.6633 11.8594 19.0521 11.8594C18.4408 11.8594 17.9453 12.347 17.9453 12.9484C17.9453 13.5499 18.4408 14.0375 19.0521 14.0375Z" fill="black" fill-opacity="0.12"/>
<path d="M22.0443 14.0375C22.6556 14.0375 23.1511 13.5499 23.1511 12.9484C23.1511 12.347 22.6556 11.8594 22.0443 11.8594C21.433 11.8594 20.9375 12.347 20.9375 12.9484C20.9375 13.5499 21.433 14.0375 22.0443 14.0375Z" fill="black" fill-opacity="0.12"/>
<path d="M1.1224 16.9789C1.73366 16.9789 2.22918 16.4913 2.22918 15.8898C2.22918 15.2884 1.73366 14.8008 1.1224 14.8008C0.511147 14.8008 0.015625 15.2884 0.015625 15.8898C0.015625 16.4913 0.511147 16.9789 1.1224 16.9789Z" fill="black" fill-opacity="0.12"/>
<path d="M4.10677 16.9789C4.71803 16.9789 5.21355 16.4913 5.21355 15.8898C5.21355 15.2884 4.71803 14.8008 4.10677 14.8008C3.49552 14.8008 3 15.2884 3 15.8898C3 16.4913 3.49552 16.9789 4.10677 16.9789Z" fill="black" fill-opacity="0.12"/>
<path d="M7.09895 16.9789C7.71022 16.9789 8.20574 16.4913 8.20574 15.8898C8.20574 15.2884 7.71022 14.8008 7.09895 14.8008C6.48769 14.8008 5.99219 15.2884 5.99219 15.8898C5.99219 16.4913 6.48769 16.9789 7.09895 16.9789Z" fill="black" fill-opacity="0.12"/>
<path d="M10.0912 16.9789C10.7024 16.9789 11.198 16.4913 11.198 15.8898C11.198 15.2884 10.7024 14.8008 10.0912 14.8008C9.4799 14.8008 8.98438 15.2884 8.98438 15.8898C8.98438 16.4913 9.4799 16.9789 10.0912 16.9789Z" fill="black" fill-opacity="0.12"/>
<path d="M19.0521 16.9789C19.6633 16.9789 20.1589 16.4913 20.1589 15.8898C20.1589 15.2884 19.6633 14.8008 19.0521 14.8008C18.4408 14.8008 17.9453 15.2884 17.9453 15.8898C17.9453 16.4913 18.4408 16.9789 19.0521 16.9789Z" fill="black" fill-opacity="0.12"/>
<path d="M22.0443 16.9789C22.6556 16.9789 23.1511 16.4913 23.1511 15.8898C23.1511 15.2884 22.6556 14.8008 22.0443 14.8008C21.433 14.8008 20.9375 15.2884 20.9375 15.8898C20.9375 16.4913 21.433 16.9789 22.0443 16.9789Z" fill="black" fill-opacity="0.12"/>
<path d="M1.1224 19.9184C1.73366 19.9184 2.22918 19.4308 2.22918 18.8293C2.22918 18.2278 1.73366 17.7402 1.1224 17.7402C0.511147 17.7402 0.015625 18.2278 0.015625 18.8293C0.015625 19.4308 0.511147 19.9184 1.1224 19.9184Z" fill="black" fill-opacity="0.12"/>
<path d="M4.10677 19.9184C4.71803 19.9184 5.21355 19.4308 5.21355 18.8293C5.21355 18.2278 4.71803 17.7402 4.10677 17.7402C3.49552 17.7402 3 18.2278 3 18.8293C3 19.4308 3.49552 19.9184 4.10677 19.9184Z" fill="black" fill-opacity="0.12"/>
<path d="M7.09895 19.9184C7.71022 19.9184 8.20574 19.4308 8.20574 18.8293C8.20574 18.2278 7.71022 17.7402 7.09895 17.7402C6.48769 17.7402 5.99219 18.2278 5.99219 18.8293C5.99219 19.4308 6.48769 19.9184 7.09895 19.9184Z" fill="black" fill-opacity="0.12"/>
<path d="M10.0912 19.9184C10.7024 19.9184 11.198 19.4308 11.198 18.8293C11.198 18.2278 10.7024 17.7402 10.0912 17.7402C9.4799 17.7402 8.98438 18.2278 8.98438 18.8293C8.98438 19.4308 9.4799 19.9184 10.0912 19.9184Z" fill="black" fill-opacity="0.12"/>
<path d="M22.0443 19.9184C22.6556 19.9184 23.1511 19.4308 23.1511 18.8293C23.1511 18.2278 22.6556 17.7402 22.0443 17.7402C21.433 17.7402 20.9375 18.2278 20.9375 18.8293C20.9375 19.4308 21.433 19.9184 22.0443 19.9184Z" fill="black" fill-opacity="0.12"/>
<path d="M7.09895 22.8598C7.71022 22.8598 8.20574 22.3722 8.20574 21.7707C8.20574 21.1692 7.71022 20.6816 7.09895 20.6816C6.48769 20.6816 5.99219 21.1692 5.99219 21.7707C5.99219 22.3722 6.48769 22.8598 7.09895 22.8598Z" fill="black" fill-opacity="0.12"/>
<path d="M10.0912 22.8598C10.7024 22.8598 11.198 22.3722 11.198 21.7707C11.198 21.1692 10.7024 20.6816 10.0912 20.6816C9.4799 20.6816 8.98438 21.1692 8.98438 21.7707C8.98438 22.3722 9.4799 22.8598 10.0912 22.8598Z" fill="black" fill-opacity="0.12"/>
<path d="M13.0755 22.8598C13.6868 22.8598 14.1823 22.3722 14.1823 21.7707C14.1823 21.1692 13.6868 20.6816 13.0755 20.6816C12.4643 20.6816 11.9688 21.1692 11.9688 21.7707C11.9688 22.3722 12.4643 22.8598 13.0755 22.8598Z" fill="black" fill-opacity="0.12"/>
<path d="M1.1224 2.27578C1.73366 2.27578 2.22918 1.78819 2.22918 1.18672C2.22918 0.585247 1.73366 0.0976562 1.1224 0.0976562C0.511147 0.0976562 0.015625 0.585247 0.015625 1.18672C0.015625 1.78819 0.511147 2.27578 1.1224 2.27578Z" fill="black"/>
<path d="M4.10677 2.27578C4.71803 2.27578 5.21355 1.78819 5.21355 1.18672C5.21355 0.585247 4.71803 0.0976562 4.10677 0.0976562C3.49552 0.0976562 3 0.585247 3 1.18672C3 1.78819 3.49552 2.27578 4.10677 2.27578Z" fill="black"/>
<path d="M7.09895 2.27578C7.71022 2.27578 8.20574 1.78819 8.20574 1.18672C8.20574 0.585247 7.71022 0.0976562 7.09895 0.0976562C6.48769 0.0976562 5.99219 0.585247 5.99219 1.18672C5.99219 1.78819 6.48769 2.27578 7.09895 2.27578Z" fill="black"/>
<path d="M10.0912 2.27578C10.7024 2.27578 11.198 1.78819 11.198 1.18672C11.198 0.585247 10.7024 0.0976562 10.0912 0.0976562C9.4799 0.0976562 8.98438 0.585247 8.98438 1.18672C8.98438 1.78819 9.4799 2.27578 10.0912 2.27578Z" fill="black"/>
<path d="M13.0755 2.27578C13.6868 2.27578 14.1823 1.78819 14.1823 1.18672C14.1823 0.585247 13.6868 0.0976562 13.0755 0.0976562C12.4643 0.0976562 11.9688 0.585247 11.9688 1.18672C11.9688 1.78819 12.4643 2.27578 13.0755 2.27578Z" fill="black"/>
<path d="M16.0677 2.27578C16.679 2.27578 17.1745 1.78819 17.1745 1.18672C17.1745 0.585247 16.679 0.0976562 16.0677 0.0976562C15.4565 0.0976562 14.9609 0.585247 14.9609 1.18672C14.9609 1.78819 15.4565 2.27578 16.0677 2.27578Z" fill="black"/>
<path d="M19.0521 2.27578C19.6633 2.27578 20.1589 1.78819 20.1589 1.18672C20.1589 0.585247 19.6633 0.0976562 19.0521 0.0976562C18.4408 0.0976562 17.9453 0.585247 17.9453 1.18672C17.9453 1.78819 18.4408 2.27578 19.0521 2.27578Z" fill="black"/>
<path d="M22.0443 2.27578C22.6556 2.27578 23.1511 1.78819 23.1511 1.18672C23.1511 0.585247 22.6556 0.0976562 22.0443 0.0976562C21.433 0.0976562 20.9375 0.585247 20.9375 1.18672C20.9375 1.78819 21.433 2.27578 22.0443 2.27578Z" fill="black"/>
<path d="M1.1224 5.21718C1.73366 5.21718 2.22918 4.72959 2.22918 4.12812C2.22918 3.52665 1.73366 3.03906 1.1224 3.03906C0.511147 3.03906 0.015625 3.52665 0.015625 4.12812C0.015625 4.72959 0.511147 5.21718 1.1224 5.21718Z" fill="black"/>
<path d="M4.10677 5.21718C4.71803 5.21718 5.21355 4.72959 5.21355 4.12812C5.21355 3.52665 4.71803 3.03906 4.10677 3.03906C3.49552 3.03906 3 3.52665 3 4.12812C3 4.72959 3.49552 5.21718 4.10677 5.21718Z" fill="black"/>
<path d="M16.0677 5.21718C16.679 5.21718 17.1745 4.72959 17.1745 4.12812C17.1745 3.52665 16.679 3.03906 16.0677 3.03906C15.4565 3.03906 14.9609 3.52665 14.9609 4.12812C14.9609 4.72959 15.4565 5.21718 16.0677 5.21718Z" fill="black"/>
<path d="M19.0521 5.21718C19.6633 5.21718 20.1589 4.72959 20.1589 4.12812C20.1589 3.52665 19.6633 3.03906 19.0521 3.03906C18.4408 3.03906 17.9453 3.52665 17.9453 4.12812C17.9453 4.72959 18.4408 5.21718 19.0521 5.21718Z" fill="black"/>
<path d="M22.0443 5.21718C22.6556 5.21718 23.1511 4.72959 23.1511 4.12812C23.1511 3.52665 22.6556 3.03906 22.0443 3.03906C21.433 3.03906 20.9375 3.52665 20.9375 4.12812C20.9375 4.72959 21.433 5.21718 22.0443 5.21718Z" fill="black"/>
<path d="M13.0755 8.15664C13.6868 8.15664 14.1823 7.66905 14.1823 7.06758C14.1823 6.46611 13.6868 5.97852 13.0755 5.97852C12.4643 5.97852 11.9688 6.46611 11.9688 7.06758C11.9688 7.66905 12.4643 8.15664 13.0755 8.15664Z" fill="black"/>
<path d="M16.0677 8.15664C16.679 8.15664 17.1745 7.66905 17.1745 7.06758C17.1745 6.46611 16.679 5.97852 16.0677 5.97852C15.4565 5.97852 14.9609 6.46611 14.9609 7.06758C14.9609 7.66905 15.4565 8.15664 16.0677 8.15664Z" fill="black"/>
<path d="M19.0521 8.15664C19.6633 8.15664 20.1589 7.66905 20.1589 7.06758C20.1589 6.46611 19.6633 5.97852 19.0521 5.97852C18.4408 5.97852 17.9453 6.46611 17.9453 7.06758C17.9453 7.66905 18.4408 8.15664 19.0521 8.15664Z" fill="black"/>
<path d="M13.0755 11.098C13.6868 11.098 14.1823 10.6105 14.1823 10.009C14.1823 9.40751 13.6868 8.91992 13.0755 8.91992C12.4643 8.91992 11.9688 9.40751 11.9688 10.009C11.9688 10.6105 12.4643 11.098 13.0755 11.098Z" fill="black"/>
<path d="M16.0677 11.098C16.679 11.098 17.1745 10.6105 17.1745 10.009C17.1745 9.40751 16.679 8.91992 16.0677 8.91992C15.4565 8.91992 14.9609 9.40751 14.9609 10.009C14.9609 10.6105 15.4565 11.098 16.0677 11.098Z" fill="black"/>
<path d="M10.0912 14.0375C10.7024 14.0375 11.198 13.5499 11.198 12.9484C11.198 12.347 10.7024 11.8594 10.0912 11.8594C9.4799 11.8594 8.98438 12.347 8.98438 12.9484C8.98438 13.5499 9.4799 14.0375 10.0912 14.0375Z" fill="black"/>
<path d="M13.0755 14.0375C13.6868 14.0375 14.1823 13.5499 14.1823 12.9484C14.1823 12.347 13.6868 11.8594 13.0755 11.8594C12.4643 11.8594 11.9688 12.347 11.9688 12.9484C11.9688 13.5499 12.4643 14.0375 13.0755 14.0375Z" fill="black"/>
<path d="M13.0755 16.9789C13.6868 16.9789 14.1823 16.4913 14.1823 15.8898C14.1823 15.2884 13.6868 14.8008 13.0755 14.8008C12.4643 14.8008 11.9688 15.2884 11.9688 15.8898C11.9688 16.4913 12.4643 16.9789 13.0755 16.9789Z" fill="black"/>
<path d="M16.0677 16.9789C16.679 16.9789 17.1745 16.4913 17.1745 15.8898C17.1745 15.2884 16.679 14.8008 16.0677 14.8008C15.4565 14.8008 14.9609 15.2884 14.9609 15.8898C14.9609 16.4913 15.4565 16.9789 16.0677 16.9789Z" fill="black"/>
<path d="M13.0755 19.9184C13.6868 19.9184 14.1823 19.4308 14.1823 18.8293C14.1823 18.2278 13.6868 17.7402 13.0755 17.7402C12.4643 17.7402 11.9688 18.2278 11.9688 18.8293C11.9688 19.4308 12.4643 19.9184 13.0755 19.9184Z" fill="black"/>
<path d="M16.0677 19.9184C16.679 19.9184 17.1745 19.4308 17.1745 18.8293C17.1745 18.2278 16.679 17.7402 16.0677 17.7402C15.4565 17.7402 14.9609 18.2278 14.9609 18.8293C14.9609 19.4308 15.4565 19.9184 16.0677 19.9184Z" fill="black"/>
<path d="M19.0521 19.9184C19.6633 19.9184 20.1589 19.4308 20.1589 18.8293C20.1589 18.2278 19.6633 17.7402 19.0521 17.7402C18.4408 17.7402 17.9453 18.2278 17.9453 18.8293C17.9453 19.4308 18.4408 19.9184 19.0521 19.9184Z" fill="black"/>
<path d="M1.1224 22.8598C1.73366 22.8598 2.22918 22.3722 2.22918 21.7707C2.22918 21.1692 1.73366 20.6816 1.1224 20.6816C0.511147 20.6816 0.015625 21.1692 0.015625 21.7707C0.015625 22.3722 0.511147 22.8598 1.1224 22.8598Z" fill="black"/>
<path d="M4.10677 22.8598C4.71803 22.8598 5.21355 22.3722 5.21355 21.7707C5.21355 21.1692 4.71803 20.6816 4.10677 20.6816C3.49552 20.6816 3 21.1692 3 21.7707C3 22.3722 3.49552 22.8598 4.10677 22.8598Z" fill="black"/>
<path d="M16.0677 22.8598C16.679 22.8598 17.1745 22.3722 17.1745 21.7707C17.1745 21.1692 16.679 20.6816 16.0677 20.6816C15.4565 20.6816 14.9609 21.1692 14.9609 21.7707C14.9609 22.3722 15.4565 22.8598 16.0677 22.8598Z" fill="black"/>
<path d="M19.0521 22.8598C19.6633 22.8598 20.1589 22.3722 20.1589 21.7707C20.1589 21.1692 19.6633 20.6816 19.0521 20.6816C18.4408 20.6816 17.9453 21.1692 17.9453 21.7707C17.9453 22.3722 18.4408 22.8598 19.0521 22.8598Z" fill="black"/>
<path d="M22.0443 22.8598C22.6556 22.8598 23.1511 22.3722 23.1511 21.7707C23.1511 21.1692 22.6556 20.6816 22.0443 20.6816C21.433 20.6816 20.9375 21.1692 20.9375 21.7707C20.9375 22.3722 21.433 22.8598 22.0443 22.8598Z" fill="black"/>
<path d="M1.1224 25.7991C1.73366 25.7991 2.22918 25.3115 2.22918 24.7102C2.22918 24.1087 1.73366 23.6211 1.1224 23.6211C0.511147 23.6211 0.015625 24.1087 0.015625 24.7102C0.015625 25.3115 0.511147 25.7991 1.1224 25.7991Z" fill="black"/>
<path d="M4.10677 25.7991C4.71803 25.7991 5.21355 25.3115 5.21355 24.7102C5.21355 24.1087 4.71803 23.6211 4.10677 23.6211C3.49552 23.6211 3 24.1087 3 24.7102C3 25.3115 3.49552 25.7991 4.10677 25.7991Z" fill="black"/>
<path d="M7.09895 25.7991C7.71022 25.7991 8.20574 25.3115 8.20574 24.7102C8.20574 24.1087 7.71022 23.6211 7.09895 23.6211C6.48769 23.6211 5.99219 24.1087 5.99219 24.7102C5.99219 25.3115 6.48769 25.7991 7.09895 25.7991Z" fill="black"/>
<path d="M10.0912 25.7991C10.7024 25.7991 11.198 25.3115 11.198 24.7102C11.198 24.1087 10.7024 23.6211 10.0912 23.6211C9.4799 23.6211 8.98438 24.1087 8.98438 24.7102C8.98438 25.3115 9.4799 25.7991 10.0912 25.7991Z" fill="black"/>
<path d="M13.0755 25.7991C13.6868 25.7991 14.1823 25.3115 14.1823 24.7102C14.1823 24.1087 13.6868 23.6211 13.0755 23.6211C12.4643 23.6211 11.9688 24.1087 11.9688 24.7102C11.9688 25.3115 12.4643 25.7991 13.0755 25.7991Z" fill="black"/>
<path d="M16.0677 25.7991C16.679 25.7991 17.1745 25.3115 17.1745 24.7102C17.1745 24.1087 16.679 23.6211 16.0677 23.6211C15.4565 23.6211 14.9609 24.1087 14.9609 24.7102C14.9609 25.3115 15.4565 25.7991 16.0677 25.7991Z" fill="black"/>
<path d="M19.0521 25.7991C19.6633 25.7991 20.1589 25.3115 20.1589 24.7102C20.1589 24.1087 19.6633 23.6211 19.0521 23.6211C18.4408 23.6211 17.9453 24.1087 17.9453 24.7102C17.9453 25.3115 18.4408 25.7991 19.0521 25.7991Z" fill="black"/>
<path d="M22.0443 25.7991C22.6556 25.7991 23.1511 25.3115 23.1511 24.7102C23.1511 24.1087 22.6556 23.6211 22.0443 23.6211C21.433 23.6211 20.9375 24.1087 20.9375 24.7102C20.9375 25.3115 21.433 25.7991 22.0443 25.7991Z" fill="black"/>
</g>
<path d="M91.6854 21.4217C90.6313 21.4217 89.7167 21.2202 88.9416 20.8172C88.1666 20.4142 87.5697 19.8406 87.1513 19.0966C86.7327 18.3525 86.5234 17.4767 86.5234 16.4692V13.1674C86.5234 12.1444 86.7327 11.2686 87.1513 10.54C87.5697 9.79594 88.1666 9.22242 88.9416 8.81937C89.7167 8.41635 90.6313 8.21484 91.6854 8.21484C92.7394 8.21484 93.6539 8.41635 94.4289 8.81937C95.204 9.22242 95.8008 9.79594 96.2194 10.54C96.638 11.2686 96.8471 12.1444 96.8471 13.1674V16.4692C96.8471 17.4767 96.638 18.3525 96.2194 19.0966C95.8008 19.8406 95.204 20.4142 94.4289 20.8172C93.6539 21.2202 92.7394 21.4217 91.6854 21.4217ZM91.6854 19.2129C92.5379 19.2129 93.1967 18.9803 93.6616 18.5153C94.1269 18.0348 94.3593 17.3527 94.3593 16.4692V13.1674C94.3593 12.2684 94.1269 11.5863 93.6616 11.1213C93.1967 10.6563 92.5379 10.4237 91.6854 10.4237C90.8482 10.4237 90.1894 10.6563 89.7089 11.1213C89.2439 11.5863 89.0113 12.2684 89.0113 13.1674V16.4692C89.0113 17.3527 89.2439 18.0348 89.7089 18.5153C90.1894 18.9803 90.8482 19.2129 91.6854 19.2129Z" fill="black"/>
<path d="M79.1375 21.2107C77.9749 21.2107 77.0682 20.893 76.4172 20.2574C75.766 19.6219 75.4406 18.7383 75.4406 17.6067V10.701H71.9062V8.42236H75.4406V4.81836H77.9518V8.42236H82.9508V10.701H77.9518V17.6067C77.9518 18.4903 78.3779 18.9321 79.2305 18.9321H82.7182V21.2107H79.1375Z" fill="black"/>
<path d="M58.7734 21.2123V8.42392H61.2615V10.8654H61.8659L61.2615 11.4467C61.2615 10.4236 61.5638 9.62526 62.1682 9.05172C62.7728 8.47819 63.6098 8.19141 64.6794 8.19141C65.9505 8.19141 66.9659 8.6022 67.7255 9.42375C68.485 10.2298 68.8647 11.3226 68.8647 12.7022V21.2123H66.3536V12.9813C66.3536 12.1442 66.1287 11.5009 65.6793 11.0514C65.2298 10.6018 64.6174 10.3771 63.8424 10.3771C63.0518 10.3771 62.4241 10.6173 61.9589 11.0979C61.5094 11.5629 61.2846 12.2449 61.2846 13.144V21.2123H58.7734Z" fill="black"/>
<path d="M49.857 21.4448C48.8185 21.4448 47.9041 21.2433 47.1135 20.8403C46.3384 20.4218 45.7416 19.8405 45.323 19.0964C44.9046 18.3524 44.6953 17.4843 44.6953 16.4922V13.144C44.6953 12.1364 44.9046 11.2684 45.323 10.5398C45.7416 9.79577 46.3384 9.22224 47.1135 8.8192C47.9041 8.40069 48.8185 8.19141 49.857 8.19141C50.9113 8.19141 51.8258 8.40069 52.6008 8.8192C53.3759 9.22224 53.9727 9.79577 54.3913 10.5398C54.8097 11.2684 55.019 12.1364 55.019 13.144V15.4227H47.1135V16.4922C47.1135 17.4378 47.3459 18.1586 47.8111 18.6546C48.2916 19.1507 48.9814 19.3987 49.8803 19.3987C50.609 19.3987 51.1981 19.2747 51.6475 19.0267C52.097 18.7631 52.376 18.3834 52.4845 17.8873H54.9726C54.7864 18.9724 54.2284 19.8405 53.2984 20.4915C52.3682 21.1271 51.2212 21.4448 49.857 21.4448ZM52.6008 13.9113V13.1207C52.6008 12.1907 52.3682 11.4699 51.9032 10.9584C51.4382 10.4468 50.7562 10.191 49.857 10.191C48.9737 10.191 48.2916 10.4468 47.8111 10.9584C47.3459 11.4699 47.1135 12.1984 47.1135 13.144V13.7253L52.7868 13.702L52.6008 13.9113Z" fill="black"/>
<path d="M30.9141 21.2119V4.23828H35.9133C37.5254 4.23828 38.7887 4.62581 39.7034 5.40087C40.6178 6.1759 41.075 7.24549 41.075 8.60959C41.075 9.38463 40.9046 10.0589 40.5637 10.6325C40.2381 11.1905 39.7809 11.6245 39.1918 11.9345C38.6027 12.2446 37.9129 12.3996 37.1223 12.3996V12.1671C37.9748 12.1516 38.7268 12.3143 39.3778 12.6554C40.0288 12.9809 40.5404 13.4692 40.9124 14.1202C41.2843 14.7713 41.4703 15.5463 41.4703 16.4454C41.4703 17.4064 41.2533 18.2513 40.8194 18.9798C40.4008 19.6929 39.7964 20.2431 39.0058 20.6306C38.2307 21.0182 37.3083 21.2119 36.2387 21.2119H30.9141ZM33.3555 19.0495H36.0296C36.9285 19.0495 37.6417 18.8093 38.1686 18.3288C38.6957 17.8482 38.9592 17.1817 38.9592 16.3291C38.9592 15.4611 38.6957 14.7635 38.1686 14.2365C37.6417 13.7094 36.9285 13.4459 36.0296 13.4459H33.3555V19.0495ZM33.3555 11.3533H35.89C36.727 11.3533 37.386 11.1285 37.8665 10.679C38.347 10.2294 38.5872 9.62489 38.5872 8.86535C38.5872 8.1058 38.347 7.50899 37.8665 7.07497C37.386 6.62545 36.7348 6.40068 35.9133 6.40068H33.3555V11.3533Z" fill="black"/>
</g>
</g>
<defs>
<clipPath id="clip0_585_2343">
<rect width="97.0302" height="25.8981" fill="white"/>
</clipPath>
<clipPath id="clip1_585_2343">
<rect width="97" height="25.8981" fill="white" transform="translate(0.015625)"/>
</clipPath>
</defs>
</svg>
