<svg width="100" height="28" viewBox="0 0 100 28" fill="none" xmlns="http://www.w3.org/2000/svg">
<g clip-path="url(#clip0_90_2)">
<mask id="mask0_90_2" style="mask-type:luminance" maskUnits="userSpaceOnUse" x="-22" y="0" width="122" height="28">
<path d="M100 0H-22V28H100V0Z" fill="white"/>
</mask>
<g mask="url(#mask0_90_2)">
<mask id="mask1_90_2" style="mask-type:luminance" maskUnits="userSpaceOnUse" x="0" y="0" width="100" height="28">
<path d="M100 0H0V28H100V0Z" fill="white"/>
</mask>
<g mask="url(#mask1_90_2)">
<path d="M11.9035 20.9252C10.8013 20.9252 9.8169 20.7572 8.9503 20.4212C8.0921 20.0768 7.3685 19.6022 6.7795 18.9974C6.1906 18.3926 5.7446 17.7542 5.4417 17.0822C5.1472 16.4018 5 16.0616 5 16.0616L8.4076 14.663C8.4076 14.663 8.5001 14.8772 8.6852 15.3056C8.8788 15.7256 9.1354 16.112 9.4551 16.4648C9.7748 16.8176 10.1577 17.0906 10.6036 17.2838C11.0495 17.477 11.5501 17.5736 12.1054 17.5736C12.9048 17.5736 13.5568 17.3762 14.0617 16.9814C14.5749 16.5866 14.8315 16.0616 14.8315 15.4064C14.8315 14.7848 14.4908 14.2682 13.8092 13.8566C13.1361 13.445 12.1054 13.0082 10.7172 12.5462C9.026 11.9918 7.7555 11.2862 6.9057 10.4294C6.0559 9.5726 5.631 8.4974 5.631 7.2038C5.631 5.7002 6.2242 4.457 7.4106 3.4742C8.5969 2.4914 10.124 2 11.9919 2C12.9763 2 13.8555 2.1386 14.6296 2.4158C15.4121 2.693 16.0852 3.092 16.6489 3.6128C17.2126 4.1336 17.6207 4.6502 17.8731 5.1626C18.1255 5.6666 18.2517 5.9186 18.2517 5.9186L14.9451 7.2668C14.9451 7.2668 14.8736 7.1408 14.7306 6.8888C14.5875 6.6284 14.373 6.368 14.0869 6.1076C13.8092 5.8472 13.4811 5.6498 13.1025 5.5154C12.7239 5.3726 12.3032 5.3012 11.8404 5.3012C11.1505 5.3012 10.5868 5.4608 10.1492 5.78C9.7201 6.0908 9.5056 6.5024 9.5056 7.0148C9.5056 7.502 9.7243 7.9178 10.1619 8.2622C10.5994 8.5982 11.6427 9.0266 13.2918 9.5474C15.1597 10.1102 16.5311 10.8788 17.4061 11.8532C18.2812 12.8192 18.7187 13.9616 18.7187 15.2804C18.7187 16.9688 18.0834 18.3338 16.813 19.3754C15.5425 20.4086 13.906 20.9252 11.9035 20.9252ZM25.0682 20.9252C23.5537 20.9252 22.3673 20.4968 21.5091 19.64C20.6593 18.7832 20.2344 17.5652 20.2344 15.986V7.5314H24.1721V15.3812C24.1721 16.2212 24.3698 16.868 24.7653 17.3216C25.1607 17.7668 25.716 17.9894 26.4312 17.9894C27.18 17.9894 27.8068 17.7038 28.3117 17.1326C28.8249 16.553 29.0815 15.8432 29.0815 15.0032V7.5314H33.0318V20.4842H29.3213V16.9814L31.1135 18.7706H29.233C28.8712 19.409 28.3243 19.9298 27.5923 20.333C26.8687 20.7278 26.0273 20.9252 25.0682 20.9252ZM43.5537 20.9252C42.6702 20.9252 41.8667 20.7404 41.1431 20.3708C40.4195 19.9928 39.8306 19.4972 39.3762 18.884H38.4044L39.2879 17.939V20.4842H35.5143V2.441H39.4646V8.9552H39.5529C39.9904 8.384 40.5668 7.9304 41.282 7.5944C42.0055 7.2584 42.7838 7.0904 43.6168 7.0904C45.3669 7.0904 46.8056 7.7162 47.9331 8.9678C49.0605 10.2194 49.6242 11.8784 49.6242 13.9448C49.6242 15.986 49.0521 17.6618 47.9078 18.9722C46.772 20.2742 45.3206 20.9252 43.5537 20.9252ZM42.5819 17.6366C43.499 17.6366 44.2604 17.2964 44.8662 16.616C45.4804 15.9356 45.7875 15.062 45.7875 13.9952C45.7875 12.92 45.4804 12.0506 44.8662 11.387C44.252 10.715 43.4906 10.379 42.5819 10.379C41.6816 10.379 40.9202 10.7108 40.2975 11.3744C39.6833 12.038 39.3762 12.9074 39.3762 13.9826C39.3762 15.0578 39.6833 15.9356 40.2975 16.616C40.9118 17.2964 41.6732 17.6366 42.5819 17.6366ZM51.6616 20.4842V2.441H58.7292C60.6307 2.441 62.1747 2.9996 63.361 4.1168C64.5558 5.234 65.1532 6.767 65.1532 8.7158C65.1532 10.6394 64.5263 12.1472 63.2727 13.2392C62.0274 14.3228 60.5003 14.8646 58.6914 14.8646H53.845V11.4878H58.3758C59.2004 11.4878 59.8693 11.24 60.3825 10.7444C60.8958 10.2404 61.1524 9.581 61.1524 8.7662C61.1524 7.9346 60.9 7.2584 60.3952 6.7376C59.8903 6.2168 59.2383 5.9564 58.4389 5.9564H55.6371V20.4842H51.6616ZM70.0761 20.9252C68.671 20.9252 67.5435 20.543 66.6937 19.7786C65.8439 19.0058 65.419 17.9936 65.419 16.742C65.419 15.398 65.9281 14.3396 66.9461 13.5668C67.9726 12.794 69.3104 12.4076 70.9595 12.4076C71.6158 12.4076 72.2342 12.4706 72.8148 12.5966C73.4037 12.7226 73.9085 12.8864 74.3292 13.088V12.332C74.3292 11.5928 74.0726 11.009 73.5594 10.5806C73.0545 10.1522 72.3604 9.938 71.477 9.938C70.9385 9.938 70.4841 9.9926 70.1139 10.1018C69.7437 10.211 69.3861 10.3622 69.0412 10.5554C68.6962 10.7486 68.3933 10.9586 68.1325 11.1854C67.8801 11.4038 67.7539 11.513 67.7539 11.513L65.8229 9.434C65.8229 9.434 66.0501 9.2576 66.5044 8.9048C66.9588 8.552 67.451 8.237 67.981 7.9598C68.5111 7.6826 69.1043 7.4684 69.7605 7.3172C70.4252 7.166 71.1404 7.0904 71.9061 7.0904C73.8833 7.0904 75.4104 7.5482 76.4874 8.4638C77.5643 9.371 78.103 10.6688 78.103 12.3572V20.4842H74.3292V17.7374L75.2253 18.8966H74.2409C73.8707 19.4762 73.3154 19.9592 72.575 20.3456C71.843 20.732 71.01 20.9252 70.0761 20.9252ZM71.275 18.38C72.1669 18.38 72.8947 18.065 73.4584 17.435C74.0305 16.805 74.3208 15.9566 74.3292 14.8898C74.0011 14.7134 73.6183 14.5706 73.1807 14.4614C72.7432 14.3522 72.2721 14.2976 71.7672 14.2976C70.9595 14.2976 70.299 14.474 69.7858 14.8268C69.281 15.1796 69.0285 15.713 69.0285 16.427C69.0285 17.0486 69.2347 17.5316 69.647 17.876C70.0592 18.212 70.6019 18.38 71.275 18.38ZM80.61 25.9652L83.942 18.7832L83.98 20.4842L78.313 7.5314H82.364L85.115 14.3984L85.507 15.6836H85.595L86.012 14.3858L88.624 7.5314H92.562L84.724 25.9652H80.61Z" fill="black"/>
</g>
</g>
</g>
<defs>
<clipPath id="clip0_90_2">
<rect width="100" height="28" fill="white"/>
</clipPath>
</defs>
</svg>
